<?xml version="1.0" encoding="UTF-8"?>
<svg width="45px" height="45px" viewBox="0 0 45 45" version="1.1" xmlns="http://www.w3.org/2000/svg" xmlns:xlink="http://www.w3.org/1999/xlink">
    <title>CBB39D23-02DD-43DE-A358-B10F8BC3E24D</title>
    <defs>
        <linearGradient x1="50%" y1="0%" x2="50%" y2="100%" id="linearGradient-1">
            <stop stop-color="#EE5D93" offset="0%"></stop>
            <stop stop-color="#C30C50" offset="100%"></stop>
        </linearGradient>
        <linearGradient x1="50%" y1="0%" x2="50%" y2="100%" id="linearGradient-2">
            <stop stop-color="#EE5D93" offset="0%"></stop>
            <stop stop-color="#C30C50" offset="100%"></stop>
        </linearGradient>
        <linearGradient x1="50%" y1="0%" x2="50%" y2="100%" id="linearGradient-3">
            <stop stop-color="#EE5D93" offset="0%"></stop>
            <stop stop-color="#C30C50" offset="100%"></stop>
        </linearGradient>
    </defs>
    <g id="Page-1" stroke="none" stroke-width="1" fill="none" fill-rule="evenodd">
        <g id="Montag_-home-page" transform="translate(-374.000000, -4073.000000)" fill-rule="nonzero">
            <g id="Solutions" transform="translate(238.000000, 3865.000000)">
                <g id="achievement" transform="translate(136.000000, 208.000000)">
                    <path d="M10.424707,27.7472461 L1.31774414,27.7472461 C0.590009766,27.7472461 0,28.3372559 0,29.0650781 L0,43.6216992 C0,44.3494336 0.590009766,44.9394434 1.31774414,44.9394434 L10.424707,44.9394434 C11.1524414,44.9394434 11.7424512,44.3494336 11.7424512,43.6216992 L11.7424512,29.0650781 C11.7424512,28.3372559 11.1524414,27.7472461 10.424707,27.7472461 Z" id="Path" fill="url(#linearGradient-1)"></path>
                    <path d="M25.5996387,21.1576465 L16.4926758,21.1576465 C15.7649414,21.1576465 15.1749316,21.7476563 15.1749316,22.4753906 L15.1749316,43.6216992 C15.1749316,44.3494336 15.7649414,44.9394434 16.4926758,44.9394434 L25.5996387,44.9394434 C26.327373,44.9394434 26.9173828,44.3494336 26.9173828,43.6216992 L26.9173828,22.4753906 C26.9173828,21.7476562 26.3274609,21.1576465 25.5996387,21.1576465 Z" id="Path" fill="url(#linearGradient-2)"></path>
                    <path d="M44.1122168,3.91640625 L37.620791,1.67545898 L37.620791,1.37830078 C37.620791,0.650566406 37.0307812,0.0605566406 36.3030469,0.0605566406 C35.5753125,0.0605566406 34.9853027,0.650566406 34.9853027,1.37830078 L34.9853027,13.6929199 L31.7495215,13.6929199 C31.0217871,13.6929199 30.4317773,14.2829297 30.4317773,15.0106641 L30.4317773,43.6216992 C30.4317773,44.3494336 31.0217871,44.9394434 31.7495215,44.9394434 L40.8564844,44.9394434 C41.5842187,44.9394434 42.1742285,44.3494336 42.1742285,43.6216992 L42.1742285,15.0106641 C42.1742285,14.2829297 41.5842187,13.6929199 40.8564844,13.6929199 L37.620791,13.6929199 L37.620791,9.14581055 L44.1938672,6.37637695 C44.697041,6.16438477 45.0173145,5.66402344 44.999209,5.11831055 C44.9811914,4.57259766 44.6283984,4.09456055 44.1122168,3.91640625 L44.1122168,3.91640625 Z" id="Path" fill="url(#linearGradient-3)"></path>
                </g>
            </g>
        </g>
    </g>
</svg>