<?xml version="1.0" encoding="UTF-8"?>
<svg width="71px" height="71px" viewBox="0 0 71 71" version="1.1" xmlns="http://www.w3.org/2000/svg" xmlns:xlink="http://www.w3.org/1999/xlink">
    <title>0D73054E-A4B2-4F90-9B9F-3B137220C71C</title>
    <g id="Page-1" stroke="none" stroke-width="1" fill="none" fill-rule="evenodd">
        <g id="Montag_-home-page" transform="translate(-1269.000000, -314.000000)">
            <g id="Banner">
                <g id="Arrow_right" transform="translate(1269.000000, 314.000000)">
                    <circle id="Oval" stroke="#FFFFFF" stroke-width="1.5" cx="35.5" cy="35.5" r="34.75"></circle>
                    <path d="M45.6803235,34.5422135 L38.4576196,27.3193469 C38.2514425,27.1131698 37.976648,27 37.6836423,27 C37.3903114,27 37.1156796,27.1133324 36.9095024,27.3193469 L36.2537356,27.9752764 C36.047721,28.1811284 35.934226,28.4560854 35.934226,28.7492537 C35.934226,29.0422594 36.047721,29.3264846 36.2537356,29.5323366 L40.4673589,33.7552282 L27.0804788,33.7552282 C26.4769066,33.7552282 26,34.2277446 26,34.8314793 L26,35.7587887 C26,36.3625235 26.4769066,36.8826817 27.0804788,36.8826817 L40.5151634,36.8826817 L36.2538982,41.1291504 C36.0478836,41.3353275 35.9343886,41.6028049 35.9343886,41.8959732 C35.9343886,42.1888163 36.0478836,42.4601962 36.2538982,42.6662107 L36.909665,43.3200264 C37.1158422,43.5262035 37.390474,43.6385603 37.6838049,43.6385603 C37.9768106,43.6385603 38.2516051,43.5247401 38.4577822,43.318563 L45.6804861,36.095859 C45.8871511,35.8890315 46.0008087,35.6129362 46,35.3194428 C46.0006461,35.0249737 45.8871511,34.7487158 45.6803235,34.5422135 Z" id="Path" fill="#FFFFFF" fill-rule="nonzero"></path>
                </g>
            </g>
        </g>
    </g>
</svg>