<?xml version="1.0" encoding="UTF-8"?>
<svg width="45px" height="46px" viewBox="0 0 45 46" version="1.1" xmlns="http://www.w3.org/2000/svg" xmlns:xlink="http://www.w3.org/1999/xlink">
    <title>597EC1F5-AAD9-40BC-80EC-E362104A4F5C</title>
    <defs>
        <linearGradient x1="50%" y1="0%" x2="50%" y2="100%" id="linearGradient-1">
            <stop stop-color="#EE5D93" offset="0%"></stop>
            <stop stop-color="#C30C50" offset="100%"></stop>
        </linearGradient>
        <linearGradient x1="50%" y1="0%" x2="50%" y2="100%" id="linearGradient-2">
            <stop stop-color="#EE5D93" offset="0%"></stop>
            <stop stop-color="#C30C50" offset="100%"></stop>
        </linearGradient>
        <linearGradient x1="50%" y1="0%" x2="50%" y2="100%" id="linearGradient-3">
            <stop stop-color="#EE5D93" offset="0%"></stop>
            <stop stop-color="#C30C50" offset="100%"></stop>
        </linearGradient>
    </defs>
    <g id="Page-1" stroke="none" stroke-width="1" fill="none" fill-rule="evenodd">
        <g id="Montag_-home-page" transform="translate(-700.000000, -4399.000000)" fill-rule="nonzero">
            <g id="Solutions" transform="translate(238.000000, 3865.000000)">
                <g id="budget" transform="translate(462.000000, 534.000000)">
                    <path d="M12.2157422,7.99804688 L22.0615137,7.99804688 C23.4714551,4.83802734 25.9508496,2.2827832 25.9715918,2.24121094 C26.3670996,1.87207031 26.4725684,1.31835938 26.2616309,0.817382813 C26.0507812,0.31640625 25.5761719,0 25.0488281,0 C22.6757813,0 21.3837891,0.84375 20.3554688,1.52929688 C19.4326172,2.16210938 18.7207031,2.63671875 17.1386719,2.63671875 C15.5566406,2.63671875 14.8447266,2.16210938 13.921875,1.52929688 C12.8935547,0.84375 11.6015625,0 9.22851563,0 C8.70117188,0 8.2265625,0.31640625 8.015625,0.817382813 C7.8046875,1.31835938 7.91015625,1.87207031 8.30566406,2.24121094 C8.32649414,2.2827832 10.8058008,4.83802734 12.2157422,7.99804688 L12.2157422,7.99804688 Z" id="Path" fill="url(#linearGradient-1)"></path>
                    <path d="M26.4550781,41.0449219 L26.4550781,43.6816406 C26.4550781,44.4097266 27.0453516,45 27.7734375,45 L43.6816406,45 C44.4097266,45 45,44.4097266 45,43.6816406 L45,41.0449219 C45,40.3168359 44.4097266,39.7265625 43.6816406,39.7265625 L27.7734375,39.7265625 C27.0453516,39.7265625 26.4550781,40.3168359 26.4550781,41.0449219 Z" id="Path" fill="url(#linearGradient-2)"></path>
                    <path d="M45,35.7714844 L45,33.1347656 C45,32.4066797 44.4097266,31.8164062 43.6816406,31.8164062 L27.7734375,31.8164062 C27.0453516,31.8164062 26.4550781,32.4066797 26.4550781,33.1347656 L26.4550781,35.7714844 C26.4550781,36.4995703 27.0453516,37.0898438 27.7734375,37.0898438 L43.6816406,37.0898438 C44.4097266,37.0898438 45,36.4995703 45,35.7714844 Z" id="Path" fill="url(#linearGradient-2)"></path>
                    <path d="M26.2880859,21.3222656 C23.7041016,18.7910156 21.5947266,16.6464844 21.1728516,13.2714844 L22.4121094,13.2714844 C23.1503906,13.2714844 23.7304687,12.6914062 23.7304687,11.953125 C23.7304687,11.2148438 23.1503906,10.6347656 22.4121094,10.6347656 L11.8652344,10.6347656 C11.1269531,10.6347656 10.546875,11.2148438 10.546875,11.953125 C10.546875,12.6914062 11.1269531,13.2714844 11.8652344,13.2714844 L13.1044922,13.2714844 C12.6826172,16.6464844 10.5732422,18.7910156 7.98925781,21.3222656 C4.24511719,24.9873047 0,29.1533203 0,38.671875 C0.052734375,42.1523438 3.03222656,45 6.59179687,45 L23.9730469,45 C23.8253906,44.5860352 23.7304687,44.1457031 23.7304687,43.6816406 L23.7304687,33.1347656 C23.7304687,30.9541992 25.5049805,29.1796875 27.6855469,29.1796875 L32.4079102,29.1796875 C30.8126953,25.7607422 28.4466797,23.4404297 26.2880859,21.3222656 Z M17.1386719,29.1796875 C19.3195898,29.1796875 21.09375,30.9538477 21.09375,33.1347656 C21.09375,34.8512695 19.9882617,36.3009375 18.4570313,36.847002 L18.4570313,38.4082031 C18.4570313,39.1369043 17.867373,39.7265625 17.1386719,39.7265625 C16.4099707,39.7265625 15.8203125,39.1369043 15.8203125,38.4082031 L15.8203125,36.847002 C14.289082,36.3010254 13.1835938,34.8512695 13.1835938,33.1347656 C13.1835938,32.4060645 13.773252,31.8164062 14.5019531,31.8164062 C15.2306543,31.8164062 15.8203125,32.4060645 15.8203125,33.1347656 C15.8203125,33.8621484 16.4112891,34.453125 17.1386719,34.453125 C17.8660547,34.453125 18.4570313,33.8621484 18.4570313,33.1347656 C18.4570313,32.4073828 17.8660547,31.8164062 17.1386719,31.8164062 C14.9577539,31.8164062 13.1835938,30.0422461 13.1835938,27.8613281 C13.1835938,26.1448242 14.289082,24.6951563 15.8203125,24.1490918 L15.8203125,22.5878906 C15.8203125,21.8591895 16.4099707,21.2695312 17.1386719,21.2695312 C17.867373,21.2695312 18.4570313,21.8591895 18.4570313,22.5878906 L18.4570313,24.1490918 C19.9882617,24.6950684 21.09375,26.1448242 21.09375,27.8613281 C21.09375,28.5900293 20.5040918,29.1796875 19.7753906,29.1796875 C19.0466895,29.1796875 18.4570313,28.5900293 18.4570313,27.8613281 C18.4570313,27.1339453 17.8660547,26.5429688 17.1386719,26.5429688 C16.4112891,26.5429688 15.8203125,27.1339453 15.8203125,27.8613281 C15.8203125,28.5887109 16.4112891,29.1796875 17.1386719,29.1796875 Z" id="Shape" fill="url(#linearGradient-3)"></path>
                </g>
            </g>
        </g>
    </g>
</svg>