<?xml version="1.0" encoding="UTF-8"?>
<svg width="40px" height="45px" viewBox="0 0 40 45" version="1.1" xmlns="http://www.w3.org/2000/svg" xmlns:xlink="http://www.w3.org/1999/xlink">
    <title>85E1D7AD-C86E-4DEE-91CC-C141869B3CE4</title>
    <defs>
        <linearGradient x1="50%" y1="0%" x2="50%" y2="100%" id="linearGradient-1">
            <stop stop-color="#EE5D93" offset="0%"></stop>
            <stop stop-color="#C30C50" offset="100%"></stop>
        </linearGradient>
        <linearGradient x1="50%" y1="0%" x2="50%" y2="100%" id="linearGradient-2">
            <stop stop-color="#EE5D93" offset="0%"></stop>
            <stop stop-color="#C30C50" offset="100%"></stop>
        </linearGradient>
        <linearGradient x1="50%" y1="0%" x2="50%" y2="100%" id="linearGradient-3">
            <stop stop-color="#EE5D93" offset="0%"></stop>
            <stop stop-color="#C30C50" offset="100%"></stop>
        </linearGradient>
        <linearGradient x1="50%" y1="0%" x2="50%" y2="100%" id="linearGradient-4">
            <stop stop-color="#EE5D93" offset="0%"></stop>
            <stop stop-color="#C30C50" offset="100%"></stop>
        </linearGradient>
        <linearGradient x1="50%" y1="0%" x2="50%" y2="100%" id="linearGradient-5">
            <stop stop-color="#EE5D93" offset="0%"></stop>
            <stop stop-color="#C30C50" offset="100%"></stop>
        </linearGradient>
    </defs>
    <g id="Page-1" stroke="none" stroke-width="1" fill="none" fill-rule="evenodd">
        <g id="Montag_-home-page" transform="translate(-705.000000, -4073.000000)" fill-rule="nonzero">
            <g id="Solutions" transform="translate(238.000000, 3865.000000)">
                <g id="employee" transform="translate(467.000000, 208.000000)">
                    <circle id="Oval" fill="url(#linearGradient-1)" cx="19.8052974" cy="6.38613281" r="6.38613281"></circle>
                    <path d="M26.6066255,37.560498 L30.6551313,32.884541 C30.9250435,32.5728809 31.0120552,32.1427441 30.8846138,31.7506641 C30.7572603,31.3586719 30.4339985,31.0617773 30.0325142,30.9683496 L24.0087544,29.5651758 L20.8126997,24.2698535 C20.5997407,23.9168848 20.2175044,23.7012012 19.8052974,23.7012012 C19.3930903,23.7012012 19.010854,23.9169727 18.7978071,24.2698535 L15.6018403,29.5651758 L9.57808056,30.9683496 C9.17659619,31.0617773 8.85333447,31.3586719 8.72589306,31.7506641 C8.59845166,32.1427441 8.68555127,32.5728809 8.95537548,32.884541 L13.0038813,37.560498 L12.476977,43.7230371 C12.4418208,44.13375 12.6241938,44.5329492 12.9577388,44.7751758 C13.2912837,45.0175781 13.7273091,45.0675 14.1069966,44.9073633 L19.8052974,42.5018848 L25.5034224,44.9073633 C25.6505513,44.969502 25.8062056,45 25.9608931,45 C26.2056685,45 26.4484224,44.9237109 26.6526802,44.7752637 C26.9862251,44.5329492 27.1685981,44.1338379 27.1334419,43.723125 L26.6066255,37.560498 Z" id="Path" fill="url(#linearGradient-2)"></path>
                    <path d="M39.1814888,36.5111719 L35.8739888,33.7905176 L35.5167134,29.5228125 C35.4823481,29.1120117 35.2354634,28.7491992 34.8659712,28.5663867 C34.4966548,28.38375 34.0582563,28.4074805 33.7108247,28.6293164 L32.463481,29.4257813 C32.8814009,29.844668 33.2047505,30.3590918 33.3921333,30.9353027 C33.8026704,32.1988184 33.5176411,33.6068262 32.6484907,34.6105371 L29.3285981,38.4449414 L29.6754145,42.5012695 L31.3896333,44.4882129 C31.6152485,44.7496875 31.9415864,44.8962012 32.2804927,44.8962012 C32.346147,44.8962012 32.4123286,44.8906641 32.4783345,44.879502 C32.8846528,44.8101563 33.225229,44.5333008 33.3758735,44.1496582 L34.9412935,40.1634668 L38.8896919,38.5047949 C39.269731,38.3450977 39.5385884,37.9982813 39.5982661,37.590293 C39.657856,37.1823926 39.4997407,36.772998 39.1814888,36.5111719 L39.1814888,36.5111719 Z" id="Path" fill="url(#linearGradient-3)"></path>
                    <path d="M6.21819775,30.935918 C6.40566845,30.3593555 6.72910595,29.844668 7.14720166,29.4256934 L5.89985791,28.6292285 C5.55233838,28.4073926 5.11420361,28.3835742 4.74471142,28.5662988 C4.37521923,28.7491992 4.12833447,29.1120117 4.09396923,29.5227246 L3.73660595,33.7904297 L0.429193844,36.511084 C0.110854,36.7729102 -0.0472612342,37.1823047 0.0124165002,37.5902051 C0.0720942345,37.9981055 0.340951656,38.3450098 0.720990719,38.504707 L4.66938916,40.1633789 L6.23480908,44.1495703 C6.3855415,44.5332129 6.72602978,44.8100684 7.13234814,44.8794141 C7.198354,44.8905762 7.26444775,44.8961133 7.33018994,44.8961133 C7.66909619,44.8961133 7.99552197,44.7495996 8.22104931,44.488125 L9.93526806,42.5011816 L10.2820845,38.4449414 L6.96219189,34.6104492 C6.0930415,33.6067383 5.8080122,32.1988184 6.21819775,30.935918 L6.21819775,30.935918 Z" id="Path" fill="url(#linearGradient-4)"></path>
                    <path d="M13.9196138,27.2496973 L16.5404243,22.907373 C17.2264106,21.7706836 18.4774458,21.0644824 19.8052974,21.0644824 C21.1332368,21.0644824 22.3843599,21.7707715 23.0702583,22.9077246 L25.6908931,27.2496973 L30.6306099,28.4003613 C30.8063032,28.4412305 30.9771626,28.4955469 31.1431001,28.5603223 L31.1431001,17.7365918 C31.1431001,15.0262207 29.2468599,12.7533691 26.7162251,12.1798828 C25.3273774,13.8338965 23.3573091,14.9837695 21.1235688,15.3123926 L21.1235688,17.7191016 C21.1235688,18.4471875 20.5332954,19.0374609 19.8052095,19.0374609 C19.0771235,19.0374609 18.4868501,18.4471875 18.4868501,17.7191016 L18.4868501,15.3123047 C16.2531099,14.9836816 14.2830415,13.8338086 12.8941938,12.1798828 C10.3635591,12.7533691 8.46740673,15.0261328 8.46740673,17.7365039 L8.46740673,28.5603223 C8.63343213,28.495459 8.80437939,28.4411426 8.98016064,28.4001855 L13.9196138,27.2496973 Z" id="Path" fill="url(#linearGradient-5)"></path>
                    <circle id="Oval-Copy-3" fill="url(#linearGradient-1)" cx="19.8052974" cy="6.38613281" r="6.38613281"></circle>
                    <path d="M26.6066255,37.560498 L30.6551313,32.884541 C30.9250435,32.5728809 31.0120552,32.1427441 30.8846138,31.7506641 C30.7572603,31.3586719 30.4339985,31.0617773 30.0325142,30.9683496 L24.0087544,29.5651758 L20.8126997,24.2698535 C20.5997407,23.9168848 20.2175044,23.7012012 19.8052974,23.7012012 C19.3930903,23.7012012 19.010854,23.9169727 18.7978071,24.2698535 L15.6018403,29.5651758 L9.57808056,30.9683496 C9.17659619,31.0617773 8.85333447,31.3586719 8.72589306,31.7506641 C8.59845166,32.1427441 8.68555127,32.5728809 8.95537548,32.884541 L13.0038813,37.560498 L12.476977,43.7230371 C12.4418208,44.13375 12.6241938,44.5329492 12.9577388,44.7751758 C13.2912837,45.0175781 13.7273091,45.0675 14.1069966,44.9073633 L19.8052974,42.5018848 L25.5034224,44.9073633 C25.6505513,44.969502 25.8062056,45 25.9608931,45 C26.2056685,45 26.4484224,44.9237109 26.6526802,44.7752637 C26.9862251,44.5329492 27.1685981,44.1338379 27.1334419,43.723125 L26.6066255,37.560498 Z" id="Path-Copy-9" fill="url(#linearGradient-2)"></path>
                    <path d="M39.1814888,36.5111719 L35.8739888,33.7905176 L35.5167134,29.5228125 C35.4823481,29.1120117 35.2354634,28.7491992 34.8659712,28.5663867 C34.4966548,28.38375 34.0582563,28.4074805 33.7108247,28.6293164 L32.463481,29.4257813 C32.8814009,29.844668 33.2047505,30.3590918 33.3921333,30.9353027 C33.8026704,32.1988184 33.5176411,33.6068262 32.6484907,34.6105371 L29.3285981,38.4449414 L29.6754145,42.5012695 L31.3896333,44.4882129 C31.6152485,44.7496875 31.9415864,44.8962012 32.2804927,44.8962012 C32.346147,44.8962012 32.4123286,44.8906641 32.4783345,44.879502 C32.8846528,44.8101563 33.225229,44.5333008 33.3758735,44.1496582 L34.9412935,40.1634668 L38.8896919,38.5047949 C39.269731,38.3450977 39.5385884,37.9982813 39.5982661,37.590293 C39.657856,37.1823926 39.4997407,36.772998 39.1814888,36.5111719 L39.1814888,36.5111719 Z" id="Path-Copy-8" fill="url(#linearGradient-3)"></path>
                    <path d="M6.21819775,30.935918 C6.40566845,30.3593555 6.72910595,29.844668 7.14720166,29.4256934 L5.89985791,28.6292285 C5.55233838,28.4073926 5.11420361,28.3835742 4.74471142,28.5662988 C4.37521923,28.7491992 4.12833447,29.1120117 4.09396923,29.5227246 L3.73660595,33.7904297 L0.429193844,36.511084 C0.110854,36.7729102 -0.0472612342,37.1823047 0.0124165002,37.5902051 C0.0720942345,37.9981055 0.340951656,38.3450098 0.720990719,38.504707 L4.66938916,40.1633789 L6.23480908,44.1495703 C6.3855415,44.5332129 6.72602978,44.8100684 7.13234814,44.8794141 C7.198354,44.8905762 7.26444775,44.8961133 7.33018994,44.8961133 C7.66909619,44.8961133 7.99552197,44.7495996 8.22104931,44.488125 L9.93526806,42.5011816 L10.2820845,38.4449414 L6.96219189,34.6104492 C6.0930415,33.6067383 5.8080122,32.1988184 6.21819775,30.935918 L6.21819775,30.935918 Z" id="Path-Copy-7" fill="url(#linearGradient-4)"></path>
                    <path d="M13.9196138,27.2496973 L16.5404243,22.907373 C17.2264106,21.7706836 18.4774458,21.0644824 19.8052974,21.0644824 C21.1332368,21.0644824 22.3843599,21.7707715 23.0702583,22.9077246 L25.6908931,27.2496973 L30.6306099,28.4003613 C30.8063032,28.4412305 30.9771626,28.4955469 31.1431001,28.5603223 L31.1431001,17.7365918 C31.1431001,15.0262207 29.2468599,12.7533691 26.7162251,12.1798828 C25.3273774,13.8338965 23.3573091,14.9837695 21.1235688,15.3123926 L21.1235688,17.7191016 C21.1235688,18.4471875 20.5332954,19.0374609 19.8052095,19.0374609 C19.0771235,19.0374609 18.4868501,18.4471875 18.4868501,17.7191016 L18.4868501,15.3123047 C16.2531099,14.9836816 14.2830415,13.8338086 12.8941938,12.1798828 C10.3635591,12.7533691 8.46740673,15.0261328 8.46740673,17.7365039 L8.46740673,28.5603223 C8.63343213,28.495459 8.80437939,28.4411426 8.98016064,28.4001855 L13.9196138,27.2496973 Z" id="Path-Copy-6" fill="url(#linearGradient-5)"></path>
                    <circle id="Oval-Copy-4" fill="url(#linearGradient-1)" cx="19.8052974" cy="6.38613281" r="6.38613281"></circle>
                    <path d="M26.6066255,37.560498 L30.6551313,32.884541 C30.9250435,32.5728809 31.0120552,32.1427441 30.8846138,31.7506641 C30.7572603,31.3586719 30.4339985,31.0617773 30.0325142,30.9683496 L24.0087544,29.5651758 L20.8126997,24.2698535 C20.5997407,23.9168848 20.2175044,23.7012012 19.8052974,23.7012012 C19.3930903,23.7012012 19.010854,23.9169727 18.7978071,24.2698535 L15.6018403,29.5651758 L9.57808056,30.9683496 C9.17659619,31.0617773 8.85333447,31.3586719 8.72589306,31.7506641 C8.59845166,32.1427441 8.68555127,32.5728809 8.95537548,32.884541 L13.0038813,37.560498 L12.476977,43.7230371 C12.4418208,44.13375 12.6241938,44.5329492 12.9577388,44.7751758 C13.2912837,45.0175781 13.7273091,45.0675 14.1069966,44.9073633 L19.8052974,42.5018848 L25.5034224,44.9073633 C25.6505513,44.969502 25.8062056,45 25.9608931,45 C26.2056685,45 26.4484224,44.9237109 26.6526802,44.7752637 C26.9862251,44.5329492 27.1685981,44.1338379 27.1334419,43.723125 L26.6066255,37.560498 Z" id="Path-Copy-13" fill="url(#linearGradient-2)"></path>
                    <path d="M39.1814888,36.5111719 L35.8739888,33.7905176 L35.5167134,29.5228125 C35.4823481,29.1120117 35.2354634,28.7491992 34.8659712,28.5663867 C34.4966548,28.38375 34.0582563,28.4074805 33.7108247,28.6293164 L32.463481,29.4257813 C32.8814009,29.844668 33.2047505,30.3590918 33.3921333,30.9353027 C33.8026704,32.1988184 33.5176411,33.6068262 32.6484907,34.6105371 L29.3285981,38.4449414 L29.6754145,42.5012695 L31.3896333,44.4882129 C31.6152485,44.7496875 31.9415864,44.8962012 32.2804927,44.8962012 C32.346147,44.8962012 32.4123286,44.8906641 32.4783345,44.879502 C32.8846528,44.8101563 33.225229,44.5333008 33.3758735,44.1496582 L34.9412935,40.1634668 L38.8896919,38.5047949 C39.269731,38.3450977 39.5385884,37.9982813 39.5982661,37.590293 C39.657856,37.1823926 39.4997407,36.772998 39.1814888,36.5111719 L39.1814888,36.5111719 Z" id="Path-Copy-12" fill="url(#linearGradient-3)"></path>
                    <path d="M6.21819775,30.935918 C6.40566845,30.3593555 6.72910595,29.844668 7.14720166,29.4256934 L5.89985791,28.6292285 C5.55233838,28.4073926 5.11420361,28.3835742 4.74471142,28.5662988 C4.37521923,28.7491992 4.12833447,29.1120117 4.09396923,29.5227246 L3.73660595,33.7904297 L0.429193844,36.511084 C0.110854,36.7729102 -0.0472612342,37.1823047 0.0124165002,37.5902051 C0.0720942345,37.9981055 0.340951656,38.3450098 0.720990719,38.504707 L4.66938916,40.1633789 L6.23480908,44.1495703 C6.3855415,44.5332129 6.72602978,44.8100684 7.13234814,44.8794141 C7.198354,44.8905762 7.26444775,44.8961133 7.33018994,44.8961133 C7.66909619,44.8961133 7.99552197,44.7495996 8.22104931,44.488125 L9.93526806,42.5011816 L10.2820845,38.4449414 L6.96219189,34.6104492 C6.0930415,33.6067383 5.8080122,32.1988184 6.21819775,30.935918 L6.21819775,30.935918 Z" id="Path-Copy-11" fill="url(#linearGradient-4)"></path>
                    <path d="M13.9196138,27.2496973 L16.5404243,22.907373 C17.2264106,21.7706836 18.4774458,21.0644824 19.8052974,21.0644824 C21.1332368,21.0644824 22.3843599,21.7707715 23.0702583,22.9077246 L25.6908931,27.2496973 L30.6306099,28.4003613 C30.8063032,28.4412305 30.9771626,28.4955469 31.1431001,28.5603223 L31.1431001,17.7365918 C31.1431001,15.0262207 29.2468599,12.7533691 26.7162251,12.1798828 C25.3273774,13.8338965 23.3573091,14.9837695 21.1235688,15.3123926 L21.1235688,17.7191016 C21.1235688,18.4471875 20.5332954,19.0374609 19.8052095,19.0374609 C19.0771235,19.0374609 18.4868501,18.4471875 18.4868501,17.7191016 L18.4868501,15.3123047 C16.2531099,14.9836816 14.2830415,13.8338086 12.8941938,12.1798828 C10.3635591,12.7533691 8.46740673,15.0261328 8.46740673,17.7365039 L8.46740673,28.5603223 C8.63343213,28.495459 8.80437939,28.4411426 8.98016064,28.4001855 L13.9196138,27.2496973 Z" id="Path-Copy-10" fill="url(#linearGradient-5)"></path>
                    <circle id="Oval-Copy-5" fill="url(#linearGradient-1)" cx="19.8052974" cy="6.38613281" r="6.38613281"></circle>
                    <path d="M26.6066255,37.560498 L30.6551313,32.884541 C30.9250435,32.5728809 31.0120552,32.1427441 30.8846138,31.7506641 C30.7572603,31.3586719 30.4339985,31.0617773 30.0325142,30.9683496 L24.0087544,29.5651758 L20.8126997,24.2698535 C20.5997407,23.9168848 20.2175044,23.7012012 19.8052974,23.7012012 C19.3930903,23.7012012 19.010854,23.9169727 18.7978071,24.2698535 L15.6018403,29.5651758 L9.57808056,30.9683496 C9.17659619,31.0617773 8.85333447,31.3586719 8.72589306,31.7506641 C8.59845166,32.1427441 8.68555127,32.5728809 8.95537548,32.884541 L13.0038813,37.560498 L12.476977,43.7230371 C12.4418208,44.13375 12.6241938,44.5329492 12.9577388,44.7751758 C13.2912837,45.0175781 13.7273091,45.0675 14.1069966,44.9073633 L19.8052974,42.5018848 L25.5034224,44.9073633 C25.6505513,44.969502 25.8062056,45 25.9608931,45 C26.2056685,45 26.4484224,44.9237109 26.6526802,44.7752637 C26.9862251,44.5329492 27.1685981,44.1338379 27.1334419,43.723125 L26.6066255,37.560498 Z" id="Path-Copy-17" fill="url(#linearGradient-2)"></path>
                    <path d="M39.1814888,36.5111719 L35.8739888,33.7905176 L35.5167134,29.5228125 C35.4823481,29.1120117 35.2354634,28.7491992 34.8659712,28.5663867 C34.4966548,28.38375 34.0582563,28.4074805 33.7108247,28.6293164 L32.463481,29.4257813 C32.8814009,29.844668 33.2047505,30.3590918 33.3921333,30.9353027 C33.8026704,32.1988184 33.5176411,33.6068262 32.6484907,34.6105371 L29.3285981,38.4449414 L29.6754145,42.5012695 L31.3896333,44.4882129 C31.6152485,44.7496875 31.9415864,44.8962012 32.2804927,44.8962012 C32.346147,44.8962012 32.4123286,44.8906641 32.4783345,44.879502 C32.8846528,44.8101563 33.225229,44.5333008 33.3758735,44.1496582 L34.9412935,40.1634668 L38.8896919,38.5047949 C39.269731,38.3450977 39.5385884,37.9982813 39.5982661,37.590293 C39.657856,37.1823926 39.4997407,36.772998 39.1814888,36.5111719 L39.1814888,36.5111719 Z" id="Path-Copy-16" fill="url(#linearGradient-3)"></path>
                    <path d="M6.21819775,30.935918 C6.40566845,30.3593555 6.72910595,29.844668 7.14720166,29.4256934 L5.89985791,28.6292285 C5.55233838,28.4073926 5.11420361,28.3835742 4.74471142,28.5662988 C4.37521923,28.7491992 4.12833447,29.1120117 4.09396923,29.5227246 L3.73660595,33.7904297 L0.429193844,36.511084 C0.110854,36.7729102 -0.0472612342,37.1823047 0.0124165002,37.5902051 C0.0720942345,37.9981055 0.340951656,38.3450098 0.720990719,38.504707 L4.66938916,40.1633789 L6.23480908,44.1495703 C6.3855415,44.5332129 6.72602978,44.8100684 7.13234814,44.8794141 C7.198354,44.8905762 7.26444775,44.8961133 7.33018994,44.8961133 C7.66909619,44.8961133 7.99552197,44.7495996 8.22104931,44.488125 L9.93526806,42.5011816 L10.2820845,38.4449414 L6.96219189,34.6104492 C6.0930415,33.6067383 5.8080122,32.1988184 6.21819775,30.935918 L6.21819775,30.935918 Z" id="Path-Copy-15" fill="url(#linearGradient-4)"></path>
                    <path d="M13.9196138,27.2496973 L16.5404243,22.907373 C17.2264106,21.7706836 18.4774458,21.0644824 19.8052974,21.0644824 C21.1332368,21.0644824 22.3843599,21.7707715 23.0702583,22.9077246 L25.6908931,27.2496973 L30.6306099,28.4003613 C30.8063032,28.4412305 30.9771626,28.4955469 31.1431001,28.5603223 L31.1431001,17.7365918 C31.1431001,15.0262207 29.2468599,12.7533691 26.7162251,12.1798828 C25.3273774,13.8338965 23.3573091,14.9837695 21.1235688,15.3123926 L21.1235688,17.7191016 C21.1235688,18.4471875 20.5332954,19.0374609 19.8052095,19.0374609 C19.0771235,19.0374609 18.4868501,18.4471875 18.4868501,17.7191016 L18.4868501,15.3123047 C16.2531099,14.9836816 14.2830415,13.8338086 12.8941938,12.1798828 C10.3635591,12.7533691 8.46740673,15.0261328 8.46740673,17.7365039 L8.46740673,28.5603223 C8.63343213,28.495459 8.80437939,28.4411426 8.98016064,28.4001855 L13.9196138,27.2496973 Z" id="Path-Copy-14" fill="url(#linearGradient-5)"></path>
                </g>
            </g>
        </g>
    </g>
</svg>