<?xml version="1.0" encoding="UTF-8"?>
<svg width="16px" height="16px" viewBox="0 0 16 16" version="1.1" xmlns="http://www.w3.org/2000/svg" xmlns:xlink="http://www.w3.org/1999/xlink">
    <title>749BCB1B-5DF6-45C2-8B89-4853457FEF27</title>
    <g id="Symbols" stroke="none" stroke-width="1" fill="none" fill-rule="evenodd">
        <g id="Footer" transform="translate(-1226.000000, -220.000000)" fill="#E70055" fill-rule="nonzero">
            <g id="Social-media">
                <g transform="translate(992.000000, 220.000000)">
                    <g id="instagram-social-network-logo-of-photo-camera" transform="translate(234.000000, 0.000000)">
                        <path d="M2.04097959,0 L13.8602449,0 C14.9826939,0 15.9010612,0.831020408 15.9010612,2.04081633 L15.9010612,13.8604082 C15.9010612,15.0702041 14.9826939,15.9012245 13.8602449,15.9012245 L2.04097959,15.9012245 C0.918204082,15.9012245 0,15.0702041 0,13.8604082 L0,2.04081633 C0,0.831020408 0.918204082,0 2.04097959,0 L2.04097959,0 Z M11.5833469,1.76669388 C11.189551,1.76669388 10.8677551,2.08865306 10.8677551,2.48261224 L10.8677551,4.19608163 C10.8677551,4.58987755 11.189551,4.912 11.5833469,4.912 L13.3805714,4.912 C13.7743673,4.912 14.0964898,4.58987755 14.0964898,4.19608163 L14.0964898,2.48261224 C14.0964898,2.08865306 13.7743673,1.76669388 13.3805714,1.76669388 L11.5833469,1.76669388 L11.5833469,1.76669388 Z M14.104,6.72457143 L12.7044898,6.72457143 C12.836898,7.15689796 12.9085714,7.61485714 12.9085714,8.08865306 C12.9085714,10.733551 10.6953469,12.877551 7.96571429,12.877551 C5.2362449,12.877551 3.02334694,10.733551 3.02334694,8.08865306 C3.02334694,7.61453061 3.09485714,7.15673469 3.22742857,6.72457143 L1.76702041,6.72457143 L1.76702041,13.4414694 C1.76702041,13.7890612 2.05142857,14.0736327 2.39918367,14.0736327 L13.4721633,14.0736327 C13.8199184,14.0736327 14.1043265,13.7892245 14.1043265,13.4414694 L14.1043265,6.72457143 L14.104,6.72457143 Z M7.96555102,4.82171429 C6.20195918,4.82171429 4.77208163,6.20702041 4.77208163,7.91608163 C4.77208163,9.62514286 6.20195918,11.010449 7.96555102,11.010449 C9.72930612,11.010449 11.1593469,9.62514286 11.1593469,7.91608163 C11.1593469,6.20702041 9.72946939,4.82171429 7.96555102,4.82171429 Z" id="Shape"></path>
                    </g>
                </g>
            </g>
        </g>
    </g>
</svg>