<?xml version="1.0" encoding="UTF-8"?>
<svg width="16px" height="16px" viewBox="0 0 16 16" version="1.1" xmlns="http://www.w3.org/2000/svg" xmlns:xlink="http://www.w3.org/1999/xlink">
    <title>FE3BA359-25C4-4A4D-9E58-6AA030612607</title>
    <g id="Symbols" stroke="none" stroke-width="1" fill="none" fill-rule="evenodd">
        <g id="Footer" transform="translate(-1182.000000, -220.000000)" fill="#E70055" fill-rule="nonzero">
            <g id="linkedin" transform="translate(1182.000000, 220.000000)">
                <path d="M15.9961318,16 L15.9961318,15.9993303 L16,15.9993303 L16,10.1048947 C16,7.22129551 15.4023596,5 12.1569209,5 C10.5967378,5 9.54973889,5.88932181 9.1223003,6.73243638 L9.07717104,6.73243638 L9.07717104,5.26920735 L6,5.26920735 L6,15.9993303 L9.20417768,15.9993303 L9.20417768,10.6861683 C9.20417768,9.28722757 9.45948037,7.93449409 11.127329,7.93449409 C12.7706789,7.93449409 12.7951776,9.53098746 12.7951776,10.7759041 L12.7951776,16 L15.9961318,16 Z" id="Path"></path>
                <polygon id="Path" points="6.69346679e-17 5 3 5 3 16 0 16"></polygon>
                <path d="M2,0 C0.895905621,0 0,0.891728544 0,1.99067519 C0,3.08962183 0.895905621,4 2,4 C3.10409438,4 4,3.08962183 4,1.99067519 C3.99930604,0.891728544 3.10340042,0 2,0 Z" id="Path"></path>
            </g>
        </g>
    </g>
</svg>