<?xml version="1.0" encoding="UTF-8"?>
<svg width="18px" height="30px" viewBox="0 0 18 30" version="1.1" xmlns="http://www.w3.org/2000/svg" xmlns:xlink="http://www.w3.org/1999/xlink">
    <title>1FFB6A95-2C80-46B4-894F-6D59195E1642</title>
    <g id="Page-1" stroke="none" stroke-width="1" fill="none" fill-rule="evenodd">
        <g id="Montag_-page-contact" transform="translate(-147.000000, -1065.000000)" fill="#E70055" fill-rule="nonzero">
            <g id="Toronto" transform="translate(142.000000, 887.000000)">
                <g id="Adress">
                    <g transform="translate(5.000000, 178.000000)">
                        <g id="location">
                            <path d="M8.83120755,-2.89546165e-13 C4.00177358,-2.89546165e-13 0.0727924528,3.92898113 0.0727924528,8.75841509 C0.0727924528,10.0754717 0.358075472,11.3412453 0.920490566,12.521434 C0.931811321,12.5466792 0.943698113,12.5714717 0.956377358,12.5962642 L7.57381132,25.4089811 C7.81675472,25.8792453 8.30184906,26.174717 8.83109434,26.174717 C9.36045283,26.174717 9.84554717,25.8793585 10.0883774,25.4089811 L16.704,12.5997736 C16.715434,12.5776981 16.7260755,12.5553962 16.7362642,12.5328679 C17.3024151,11.349283 17.5893962,10.0796604 17.5893962,8.75841509 C17.5896226,3.92898113 13.6606415,-2.89546165e-13 8.83120755,-2.89546165e-13 Z M8.83120755,13.3427547 C6.30339623,13.3427547 4.24686792,11.2862264 4.24686792,8.75841509 C4.24686792,6.23071698 6.30339623,4.17418868 8.83120755,4.17418868 C11.3590189,4.17418868 13.4155472,6.23071698 13.4155472,8.75841509 C13.4155472,11.2862264 11.3590189,13.3427547 8.83120755,13.3427547 Z" id="Shape"></path>
                            <path d="M12.2049057,28.190717 L5.45750943,28.190717 C4.98849057,28.190717 4.60845283,28.5707547 4.60845283,29.0397736 C4.60845283,29.5087925 4.98849057,29.8888302 5.45750943,29.8888302 L12.2049057,29.8888302 C12.6739245,29.8888302 13.0539623,29.5087925 13.0539623,29.0397736 C13.0539623,28.5707547 12.6738113,28.190717 12.2049057,28.190717 Z" id="Path"></path>
                        </g>
                    </g>
                </g>
            </g>
        </g>
    </g>
</svg>