<?xml version="1.0" encoding="UTF-8"?>
<svg width="25px" height="30px" viewBox="0 0 25 30" version="1.1" xmlns="http://www.w3.org/2000/svg" xmlns:xlink="http://www.w3.org/1999/xlink">
    <title>8FECC2BE-52DA-468C-87D5-6CEEFB77A155</title>
    <g id="Symbols" stroke="none" stroke-width="1" fill="none" fill-rule="evenodd">
        <g id="Footer" transform="translate(-622.000000, -72.000000)" fill="#E70055" fill-rule="nonzero">
            <g id="mail">
                <g transform="translate(622.000000, 72.000000)">
                    <path d="M21.4154786,30 C23.089613,30 24.4582485,28.6374745 24.4582485,26.9572301 L24.4582485,14.4256619 C24.4582485,12.7515275 23.095723,11.3828921 21.4154786,11.3828921 L3.08553971,11.3828921 C1.4114053,11.3828921 0.0427698574,12.7454175 0.0427698574,14.4256619 L0.0427698574,26.9572301 C0.0427698574,28.6313646 1.40529532,30 3.08553971,30 L21.4154786,30 L21.4154786,30 Z M3.15274949,15.6171079 C2.83503055,15.3482688 2.79837067,14.8778004 3.06720978,14.5600815 C3.33604888,14.2423625 3.80651731,14.2057026 4.12423625,14.4745418 L12.2505092,21.3788187 L20.3828921,14.4806517 C20.700611,14.2118126 21.1710794,14.2545825 21.4399185,14.5661914 C21.7087576,14.8839104 21.6659878,15.3543788 21.3543788,15.6232179 L15.5498982,20.5478615 L21.3788187,26.0346232 C21.6782077,26.3156823 21.6965377,26.7922607 21.4093686,27.0916497 C21.2627291,27.2505092 21.0610998,27.3299389 20.8655804,27.3299389 C20.6822811,27.3299389 20.4989817,27.2627291 20.3523422,27.1283096 L14.395112,21.5254582 L12.7331976,22.9368635 C12.592668,23.0529532 12.4215886,23.114053 12.2505092,23.114053 C12.0794297,23.114053 11.9083503,23.0529532 11.7678208,22.9368635 L10.1059063,21.5254582 L4.14867617,27.1283096 C4.00203666,27.2627291 3.81873727,27.3299389 3.63543788,27.3299389 C3.43380855,27.3299389 3.23828921,27.2505092 3.09164969,27.0916497 C2.81059063,26.7922607 2.82281059,26.3156823 3.12219959,26.0346232 L8.95112016,20.5478615 L3.15274949,15.6171079 Z" id="Shape"></path>
                    <path d="M12.2515071,-1.48325796e-13 L12.2515071,-1.48325796e-13 C12.9052749,-1.48325796e-13 13.4307332,0.525458248 13.4307332,1.17922607 L13.4307332,8.37678208 C13.4307332,9.0305499 12.9052749,9.55600815 12.2515071,9.55600815 L12.2515071,9.55600815 C11.5977393,9.55600815 11.0722811,9.0305499 11.0722811,8.37678208 L11.0722811,1.18533605 C11.0722811,0.531568228 11.5977393,-1.48325796e-13 12.2515071,-1.48325796e-13 Z" id="Path"></path>
                    <path d="M7.50305499,3.80040733 L7.50305499,3.80040733 C8.15682281,3.80040733 8.68228106,4.32586558 8.68228106,4.9796334 L8.68228106,8.37678208 C8.68228106,9.0305499 8.15682281,9.55600815 7.50305499,9.55600815 L7.50305499,9.55600815 C6.84928717,9.55600815 6.32382892,9.0305499 6.32382892,8.37678208 L6.32382892,4.9796334 C6.32382892,4.33197556 6.84928717,3.80040733 7.50305499,3.80040733 Z" id="Path"></path>
                    <path d="M16.9999593,3.80040733 L16.9999593,3.80040733 C16.3461914,3.80040733 15.8207332,4.32586558 15.8207332,4.9796334 L15.8207332,8.37678208 C15.8207332,9.0305499 16.3461914,9.55600815 16.9999593,9.55600815 L16.9999593,9.55600815 C17.6537271,9.55600815 18.1791853,9.0305499 18.1791853,8.37678208 L18.1791853,4.9796334 C18.1791853,4.33197556 17.6537271,3.80040733 16.9999593,3.80040733 Z" id="Path"></path>
                </g>
            </g>
        </g>
    </g>
</svg>