<svg xmlns="http://www.w3.org/2000/svg" width="17.517" height="29.889" viewBox="0 0 17.517 29.889">
  <g id="Page-1" transform="translate(-0.073)">
    <g id="Montag_-page-contact" transform="translate(-147 -1065)">
      <g id="Toronto" transform="translate(142 887)">
        <g id="Adress">
          <g id="Group_8" data-name="Group 8" transform="translate(5 178)">
            <g id="location">
              <path id="Shape" d="M8.831,0A8.768,8.768,0,0,0,.073,8.758,8.678,8.678,0,0,0,.92,12.521c.011.025.023.05.036.075L7.574,25.409a1.415,1.415,0,0,0,2.515,0L16.7,12.6c.011-.022.022-.044.032-.067a8.678,8.678,0,0,0,.853-3.774A8.768,8.768,0,0,0,8.831,0Zm0,13.343a4.584,4.584,0,1,1,4.584-4.584A4.59,4.59,0,0,1,8.831,13.343Z" fill="#e70055"/>
              <path id="Path" d="M12.2,28.191H5.458a.849.849,0,1,0,0,1.7H12.2a.849.849,0,1,0,0-1.7Z" fill="#e70055"/>
            </g>
          </g>
        </g>
      </g>
    </g>
  </g>
</svg>
