<?xml version="1.0" encoding="UTF-8"?>
<svg width="29px" height="30px" viewBox="0 0 29 30" version="1.1" xmlns="http://www.w3.org/2000/svg" xmlns:xlink="http://www.w3.org/1999/xlink">
    <title>079707FA-383F-4040-97BF-6ABA85876169</title>
    <g id="Symbols" stroke="none" stroke-width="1" fill="none" fill-rule="evenodd">
        <g id="Footer" transform="translate(-258.000000, -72.000000)" fill="#E70055" fill-rule="nonzero">
            <g id="phone">
                <g transform="translate(258.000000, 72.000000)">
                    <circle id="Oval" cx="14.4632768" cy="21.1783697" r="1"></circle>
                    <path d="M14.4632768,16.5294592 C11.8957545,16.5294592 9.81436642,18.6108474 9.81436642,21.1783697 C9.81436642,23.745892 11.8957545,25.8272801 14.4632768,25.8272801 C17.0307991,25.8272801 19.1121872,23.745892 19.1121872,21.1783697 C19.1090565,18.6121452 17.0295013,16.53259 14.4632768,16.5294592 Z M14.4632768,22.7280065 C13.6074361,22.7280065 12.91364,22.0342104 12.91364,21.1783697 C12.91364,20.3225289 13.6074361,19.6287328 14.4632768,19.6287328 C15.3191176,19.6287328 16.0129136,20.3225289 16.0129136,21.1783697 C16.0129136,22.0342104 15.3191176,22.7280065 14.4632768,22.7280065 Z" id="Shape"></path>
                    <path d="M22.5343019,17.4917837 L21.346247,17.2180145 C20.6417547,17.0577049 20.1427444,16.4301323 20.1452785,15.7076352 L20.1452785,13.3986764 C20.1454858,13.2322496 20.0654932,13.0759179 19.9303955,12.9787248 C18.3278832,11.869074 16.4115217,11.3030738 14.4632768,11.3640032 C12.5148853,11.3031822 10.5983929,11.8691675 8.99564165,12.9787248 C8.86073931,13.0760296 8.7809483,13.232343 8.78127522,13.3986764 L8.78127522,15.7076352 C8.78380929,16.4301323 8.28479897,17.0577049 7.5803067,17.2180145 L6.39225182,17.4917837 L1.11367232,25.8500081 C1.06141093,25.9329289 1.03349028,26.0288614 1.0330912,26.1268765 L1.0330912,29.4430993 C1.0330912,29.7283795 1.26435655,29.9596449 1.5496368,29.9596449 L27.3769169,29.9596449 C27.6621971,29.9596449 27.8934625,29.7283795 27.8934625,29.4430993 L27.8934625,26.1268765 C27.8928912,26.0280936 27.8646148,25.9314528 27.8118483,25.8479419 L22.5343019,17.4917837 Z M14.4632768,26.8603713 C11.325194,26.8603713 8.78127522,24.3164525 8.78127522,21.1783697 C8.78127522,18.0402868 11.325194,15.496368 14.4632768,15.496368 C17.6013597,15.496368 20.1452785,18.0402868 20.1452785,21.1783697 C20.1415782,24.3149185 17.5998257,26.856671 14.4632768,26.8603713 Z" id="Shape"></path>
                    <path d="M28.7369814,11.8288943 C27.0029379,10.4450686 22.1406941,7.23163842 14.4632768,7.23163842 C6.78585956,7.23163842 1.92361582,10.4450686 0.189572236,11.8288943 C0.0229849052,11.9638892 -0.0419363177,12.1883312 0.0268603713,12.3914124 L1.73714286,17.0108797 C1.81498359,17.2724447 2.08286274,17.4283305 2.34873285,17.3667797 L7.34786118,16.2128168 C7.58288597,16.1585463 7.74906194,15.9488429 7.74818402,15.7076352 L7.74818402,13.3986764 C7.75000686,12.9051001 7.98500515,12.4414238 8.38198547,12.1481195 C10.1623385,10.9071145 12.2939316,10.2701532 14.4632768,10.330912 C16.6323798,10.2701867 18.7637471,10.9069535 20.5440517,12.1476029 C20.9413081,12.4409611 21.1765067,12.9048462 21.1783697,13.3986764 L21.1783697,15.7076352 C21.1784559,15.9480706 21.3444222,16.1566527 21.5786925,16.2107506 L26.5778208,17.3647135 C26.8373404,17.4243886 27.0996958,17.2769954 27.1837288,17.0243099 L28.9048588,12.3753995 C28.9666651,12.1760417 28.9000473,11.959175 28.7369814,11.8288943 L28.7369814,11.8288943 Z" id="Shape"></path>
                    <path d="M18.4809685,5.28012914 C18.3439833,5.2800999 18.2126193,5.22565909 18.1157708,5.12878128 C16.0972464,3.11472403 12.8293072,3.11472403 10.8107829,5.12878128 C10.6081013,5.3245377 10.2859288,5.32173812 10.0866797,5.12248902 C9.88743056,4.92323992 9.88463099,4.60106738 10.0803874,4.39838579 C12.5025693,1.9815977 16.4239843,1.9815977 18.8461663,4.39838579 C18.9938507,4.54611487 19.0380226,4.76825136 18.9580903,4.96124206 C18.8781581,5.15423277 18.6898574,5.28008456 18.4809685,5.28012914 Z" id="Shape"></path>
                    <path d="M20.6726715,3.60497175 C20.5356863,3.60497175 20.4043223,3.55050169 20.3074738,3.45362389 C17.0775051,0.231539401 11.8490485,0.231539401 8.6190799,3.45362389 C8.41639831,3.64938032 8.09422577,3.64658072 7.89497667,3.44733163 C7.69572757,3.24808253 7.692928,2.92591 7.88868442,2.72322841 C11.5221931,-0.901871052 17.4043605,-0.901871052 21.0378692,2.72322841 C21.1855537,2.87095748 21.2297256,3.09309398 21.1497933,3.28608468 C21.069861,3.47907538 20.8815604,3.60492715 20.6726715,3.60497175 Z" id="Shape"></path>
                </g>
            </g>
        </g>
    </g>
</svg>