<?xml version="1.0" encoding="UTF-8"?>
<svg width="48px" height="40px" viewBox="0 0 48 40" version="1.1" xmlns="http://www.w3.org/2000/svg" xmlns:xlink="http://www.w3.org/1999/xlink">
    <title>FE2B14FA-BEDC-4E5C-A0D7-E5D5EDAA7A0E</title>
    <defs>
        <linearGradient x1="50%" y1="0%" x2="50%" y2="100%" id="linearGradient-1">
            <stop stop-color="#EE5D93" offset="0%"></stop>
            <stop stop-color="#C30C50" offset="100%"></stop>
        </linearGradient>
        <linearGradient x1="50%" y1="0%" x2="50%" y2="100%" id="linearGradient-2">
            <stop stop-color="#EE5D93" offset="0%"></stop>
            <stop stop-color="#C30C50" offset="100%"></stop>
        </linearGradient>
        <linearGradient x1="50%" y1="0%" x2="50%" y2="100%" id="linearGradient-3">
            <stop stop-color="#EE5D93" offset="0%"></stop>
            <stop stop-color="#C30C50" offset="100%"></stop>
        </linearGradient>
    </defs>
    <g id="Page-1" stroke="none" stroke-width="1" fill="none" fill-rule="evenodd">
        <g id="Montag_-home-page" transform="translate(-372.000000, -4399.000000)" fill-rule="nonzero">
            <g id="Solutions" transform="translate(238.000000, 3865.000000)">
                <g id="Pro-Copy" transform="translate(134.000000, 534.000000)">
                    <path d="M31.9328614,19.5555556 L31.9328614,20.7649124 C31.9328614,23.6238566 29.5993652,25.9502166 26.7308349,25.9502166 L21.2687989,25.9502166 C18.4006348,25.9502166 16.0667724,23.6242216 16.0667724,20.7649124 L16.0667724,19.5555556 L0,19.5555556 L0,35.2308343 C0,37.8605373 2.14636228,40 4.78454588,40 L43.2154541,40 C45.8536377,40 48,37.8605373 48,35.2308343 L48,19.5555556 L31.9328614,19.5555556 Z" id="Path" fill="url(#linearGradient-1)"></path>
                    <path d="M18.6666667,20.7654525 C18.6666667,22.0589793 19.681355,23.1111111 20.9288476,23.1111111 L26.1819113,23.1111111 C27.4294039,23.1111111 28.4444444,22.0589793 28.4444444,20.7654525 L28.4444444,19.5555556 L18.6666667,19.5555556 L18.6666667,20.7654525 Z" id="Path" fill="url(#linearGradient-2)"></path>
                    <path d="M48,16 L48,11.8304954 C48,9.23100522 45.8536377,7.11612276 43.2154541,7.11612276 L32.7513427,7.11612276 L32.7513427,3.61453281 C32.7513427,1.62125345 31.105957,0 29.0830078,0 L18.9169922,0 C16.894043,0 15.2486573,1.62125345 15.2486573,3.61453281 L15.2486573,7.11612276 L4.78454588,7.11612276 C2.14636228,7.11612276 0,9.23100522 0,11.8304954 L0,15.9996392 L48,15.9996392 L48,16 Z M18.0981445,3.61453281 C18.0981445,3.16961729 18.4654541,2.80769489 18.9169922,2.80769489 L29.0830078,2.80769489 C29.5345459,2.80769489 29.9018555,3.16961729 29.9018555,3.61453281 L29.9018555,7.11612276 L18.0981445,7.11612276 L18.0981445,3.61453281 Z" id="Shape" fill="url(#linearGradient-3)"></path>
                </g>
            </g>
        </g>
    </g>
</svg>