<?xml version="1.0" encoding="UTF-8"?>
<svg width="45px" height="45px" viewBox="0 0 45 45" version="1.1" xmlns="http://www.w3.org/2000/svg" xmlns:xlink="http://www.w3.org/1999/xlink">
    <title>EFEA4E17-6340-4474-9555-95FC4B7C7F47</title>
    <defs>
        <linearGradient x1="50%" y1="0%" x2="50%" y2="100%" id="linearGradient-1">
            <stop stop-color="#EE5D93" offset="0%"></stop>
            <stop stop-color="#C30C50" offset="100%"></stop>
        </linearGradient>
        <linearGradient x1="50%" y1="0%" x2="50%" y2="100%" id="linearGradient-2">
            <stop stop-color="#EE5D93" offset="0%"></stop>
            <stop stop-color="#C30C50" offset="100%"></stop>
        </linearGradient>
        <linearGradient x1="50%" y1="0%" x2="50%" y2="100%" id="linearGradient-3">
            <stop stop-color="#EE5D93" offset="0%"></stop>
            <stop stop-color="#C30C50" offset="100%"></stop>
        </linearGradient>
    </defs>
    <g id="Page-1" stroke="none" stroke-width="1" fill="none" fill-rule="evenodd">
        <g id="Montag_-home-page" transform="translate(-1026.000000, -4073.000000)" fill-rule="nonzero">
            <g id="Solutions" transform="translate(238.000000, 3865.000000)">
                <g id="RETIRED" transform="translate(788.000000, 208.000000)">
                    <path d="M21.9956836,38.1355663 C21.7933594,38.1354785 21.5993848,38.2158984 21.4562988,38.3588965 C21.3132129,38.5019824 21.2328809,38.695957 21.2329687,38.8982813 L21.2329687,41.9491406 C21.2329687,42.7915723 20.5499707,43.4745703 19.7075391,43.4745703 C18.8651074,43.4745703 18.1821094,42.7915723 18.1821094,41.9491406 L18.1821094,41.1864258 C18.1821094,40.765166 17.8406543,40.4237109 17.4193945,40.4237109 C16.9981348,40.4237109 16.6566797,40.765166 16.6566797,41.1864258 L16.6566797,41.9491406 C16.6566797,43.6340918 18.0225879,45 19.7075391,45 C21.3924902,45 22.7583985,43.6340918 22.7583985,41.9491406 L22.7583985,38.8982813 C22.7584863,38.695957 22.6780664,38.5019824 22.5350684,38.3588965 C22.3920703,38.2158984 22.1980078,38.1355663 21.9956836,38.1355663 Z" id="Path" fill="url(#linearGradient-1)"></path>
                    <path d="M22.0261816,0 C10.4406152,0 0.929619141,6.16271484 0.0219726562,14.0109961 C0.670253906,11.234707 3.43133789,9.15249023 6.74147461,9.15249023 C9.28239258,9.09298828 11.6545605,10.4201367 12.933457,12.6165234 C13.066875,12.8642871 13.3282617,13.0158984 13.6095996,13.0086914 C13.8908496,13.0014844 14.1441504,12.8366895 14.2647363,12.5824219 C15.4425586,10.3023633 18.0892969,8.67041016 21.2330566,8.43697266 L21.2330566,18.3049805 C21.2330566,18.7262402 21.5745117,19.0676953 21.9957715,19.0676953 C22.4170313,19.0676953 22.7584863,18.7262402 22.7584863,18.3049805 L22.7584863,8.43706055 C25.9022461,8.67058594 28.5489844,10.3025391 29.7268066,12.5825098 C29.8473926,12.8367773 30.1006934,13.0015723 30.3819434,13.0087793 C30.6631934,13.0159863 30.924668,12.864375 31.0580859,12.6166113 C32.3368945,10.4201367 34.7091504,9.09307617 37.2500684,9.15257813 C40.8958594,9.15257813 43.8779883,11.6772363 44.099209,14.865293 C43.8092578,6.62027344 34.0313379,0 22.0261816,0 Z" id="Path" fill="url(#linearGradient-2)"></path>
                    <path d="M31.267002,32.0429883 C30.997793,32.0005371 30.7262988,32.1049512 30.5549121,32.3169434 C30.0863672,32.845166 29.5137598,33.2708203 28.8730371,33.5673633 C27.9747949,31.902627 27.4614258,30.057627 27.3707227,28.1682422 C27.3629004,28.1235937 27.3508594,28.0797363 27.3345996,28.0372852 L27.3345996,24.7961426 C27.3930469,24.7036816 27.4305762,24.5994434 27.4444629,24.4908984 C27.7766895,21.4936523 28.9538965,17.6339355 30.2767383,16.6231934 C30.6107227,16.3670801 30.6741797,15.8888672 30.4186816,15.5544434 C30.1631836,15.2200195 29.6850586,15.1556836 29.3501953,15.4105664 C28.1475,16.3299902 27.2446875,18.4525488 26.6565234,20.593125 L15.8940527,20.593125 C15.472793,20.593125 15.1313379,20.9345801 15.1313379,21.3558398 C15.1313379,21.7770996 15.472793,22.1185547 15.8940527,22.1185547 L17.4194824,22.1185547 L17.4194824,24.4066992 L14.368623,24.4066992 C13.5261914,24.4066992 12.8431934,25.0896973 12.8431934,25.9321289 L12.8431934,28.2202734 L15.090293,28.2202734 C14.9944922,30.0917285 14.4829687,31.9182715 13.5929004,33.5672754 C12.9521777,33.2707324 12.3795703,32.8450781 11.9110254,32.3168555 C11.646123,31.9891992 11.1657129,31.9383105 10.8380566,32.2033008 C10.5104004,32.4682031 10.4595117,32.9486133 10.724502,33.2762695 C12.3616406,35.3014453 16.4865234,36.6101367 21.2329687,36.6101367 C25.9794141,36.6101367 30.1043848,35.3014453 31.7415234,33.2762695 C31.9129102,33.0642773 31.9581738,32.7770508 31.8603516,32.5226074 C31.7624414,32.268252 31.5362988,32.0854395 31.267002,32.0429883 Z M18.9449121,22.1186426 L26.2886133,22.1186426 C26.1220605,22.9137012 26.0004199,23.6714062 25.9281738,24.3225879 C25.9290527,24.3508008 25.9315137,24.3788379 25.9357324,24.4067871 L18.945,24.4067871 L18.945,22.1186426 L18.9449121,22.1186426 Z M21.2329688,35.084707 C19.1232422,35.1044824 17.0237109,34.790625 15.0119824,34.1547363 C15.9619043,32.3314453 16.5091113,30.3254297 16.6168652,28.2723926 C16.6180957,28.2541113 16.6100977,28.238291 16.6100098,28.2202734 L25.8559277,28.2202734 C25.8559277,28.2383789 25.8478418,28.2541992 25.8490723,28.2723926 C25.9567383,30.3254297 26.5040332,32.3314453 27.4538672,34.1547363 C25.4422266,34.790625 23.3426953,35.1044824 21.2329688,35.084707 Z" id="Shape" fill="url(#linearGradient-3)"></path>
                </g>
            </g>
        </g>
    </g>
</svg>