<?xml version="1.0" encoding="UTF-8"?>
<svg width="23px" height="16px" viewBox="0 0 23 16" version="1.1" xmlns="http://www.w3.org/2000/svg" xmlns:xlink="http://www.w3.org/1999/xlink">
    <title>0958E28C-C131-47D0-AD5D-6A843BE2C21F</title>
    <g id="Symbols" stroke="none" stroke-width="1" fill="none" fill-rule="evenodd">
        <g id="Footer" transform="translate(-1095.000000, -220.000000)" fill="#E70055" fill-rule="nonzero">
            <g id="Social-media">
                <g transform="translate(992.000000, 220.000000)">
                    <g id="youtube" transform="translate(103.000000, 0.000000)">
                        <path d="M22.4834414,2.50361768 C22.2189039,1.52462647 21.4435066,0.752898496 20.4601783,0.4892864 C18.6637616,0 11.4779549,0 11.4779549,0 C11.4779549,0 4.29242839,0 2.49601174,0.470735891 C1.53159898,0.73406905 0.737286067,1.52476594 0.472748618,2.50361768 C0,4.29171678 0,8 0,8 C0,8 0,11.7269732 0.472748618,13.4963823 C0.73756628,14.4752341 1.51268343,15.246962 2.49615185,15.5105741 C4.31134391,16 11.4782351,16 11.4782351,16 C11.4782351,16 18.6637616,16 20.4601783,15.5292641 C21.4436467,15.2657914 22.2189039,14.4940635 22.4837216,13.5152118 C22.9564266,11.7269732 22.9564266,8.01882945 22.9564266,8.01882945 C22.9564266,8.01882945 22.9752457,4.29171678 22.4834414,2.50361768 L22.4834414,2.50361768 Z M9.19015433,11.4258416 L9.19015433,4.57415836 L15.1655061,8 L9.19015433,11.4258416 Z" id="Shape"></path>
                    </g>
                </g>
            </g>
        </g>
    </g>
</svg>